<svg viewBox="0 0 24 24" xmlns="http://www.w3.org/2000/svg"><path d="M49.61-38.457a3.896 3.896 0 0 0-3.891 3.896v.28H43.81l-1.813 12.69h8.014c.874 2.358 3.14 4.048 5.799 4.048a6.2 6.2 0 0 0 6.191-6.191c0-3.325-2.639-6.038-5.93-6.176-.22-1.457-.444-2.914-.666-4.371h-1.904v-.28a3.898 3.898 0 0 0-3.893-3.896zm0 1a2.878 2.878 0 0 1 2.892 2.896v.28h-5.783v-.28a2.876 2.876 0 0 1 2.89-2.896zm-4.932 4.176h1.04v2.615h1v-2.615h5.784v2.615h1v-2.615h1.045l.52 3.406a6.197 6.197 0 0 0-5.22 4.508H43.55zm11.133 4.357a5.183 5.183 0 0 1 5.191 5.19 5.185 5.185 0 0 1-5.191 5.191 5.183 5.183 0 0 1-5.19-5.191 5.181 5.181 0 0 1 5.19-5.19zm-12.405 4.557h6.246a6.188 6.188 0 0 0 .08 1.775h-6.58z" style="line-height:normal;font-variant-ligatures:normal;font-variant-position:normal;font-variant-caps:normal;font-variant-numeric:normal;font-variant-alternates:normal;font-variant-east-asian:normal;font-feature-settings:normal;font-variation-settings:normal;text-indent:0;text-align:start;text-decoration-line:none;text-decoration-style:solid;text-decoration-color:#000;text-transform:none;text-orientation:mixed;white-space:normal;shape-padding:0;shape-margin:0;inline-size:0;isolation:auto;mix-blend-mode:normal;solid-color:#000;solid-opacity:1" transform="translate(-40 40)" color="#000000" font-style="normal" font-variant="normal" font-weight="400" font-stretch="normal" font-size="medium" font-family="sans-serif" text-decoration="none" letter-spacing="normal" word-spacing="normal" writing-mode="lr-tb" direction="ltr" dominant-baseline="auto" baseline-shift="baseline" text-anchor="start" clip-rule="nonzero" display="inline" overflow="visible" visibility="visible" opacity="1" color-interpolation="sRGB" color-interpolation-filters="linearRGB" vector-effect="none" fill="#ffffff" fill-opacity="1" fill-rule="nonzero" stroke="none" stroke-width="1" stroke-linecap="square" stroke-linejoin="miter" stroke-miterlimit="4" stroke-dasharray="none" stroke-dashoffset="0" stroke-opacity="1" paint-order="stroke fill markers" color-rendering="auto" image-rendering="auto" shape-rendering="auto" text-rendering="auto" enable-background="accumulate" stop-color="#ffffff" stop-opacity="1" class="fill-000000 stop-color-000000"></path><path d="M-64.7-26.99v.924h-1.206v2.822h2.414v.863h-2.414v.983h1.207v.92h1.02v-.92h1.206v-2.827h-2.41v-.863h2.41v-.978h-1.207v-.924z" style="line-height:normal;font-variant-ligatures:normal;font-variant-position:normal;font-variant-caps:normal;font-variant-numeric:normal;font-variant-alternates:normal;font-variant-east-asian:normal;font-feature-settings:normal;font-variation-settings:normal;text-indent:0;text-align:start;text-decoration-line:none;text-decoration-style:solid;text-decoration-color:#000;text-transform:none;text-orientation:mixed;white-space:normal;shape-padding:0;shape-margin:0;inline-size:0;isolation:auto;mix-blend-mode:normal;solid-color:#000;solid-opacity:1" transform="translate(80 40)" color="#000000" font-style="normal" font-variant="normal" font-weight="400" font-stretch="normal" font-size="medium" font-family="sans-serif" text-decoration="none" letter-spacing="normal" word-spacing="normal" writing-mode="lr-tb" direction="ltr" dominant-baseline="auto" baseline-shift="baseline" text-anchor="start" clip-rule="nonzero" display="inline" overflow="visible" visibility="visible" color-interpolation="sRGB" color-interpolation-filters="linearRGB" vector-effect="none" fill="#ffffff" fill-opacity="1" fill-rule="nonzero" stroke="none" stroke-width=".999996px" stroke-linecap="square" stroke-linejoin="miter" stroke-miterlimit="4" stroke-dasharray="none" stroke-dashoffset="0" stroke-opacity="1" color-rendering="auto" image-rendering="auto" shape-rendering="auto" text-rendering="auto" enable-background="accumulate" stop-color="#ffffff" class="fill-000000 stop-color-000000"></path></svg>